# AST/ASF file generated using VICON BodyLanguage
# -----------------------------------------------
:version 1.10
:name VICON
:units
  mass 1.0
  length 0.45
  angle deg
:documentation
   .ast/.asf automatically generated from VICON data using
   VICON BodyBuilder and BodyLanguage model FoxedUp or BRILLIANT.MOD
:root
   order TX TY TZ RX RY RZ
   axis XYZ
   position 0 0 0  
   orientation 0 0 0 
:bonedata
  begin
     id 1 
     name lhipjoint
     direction 0.575328 -0.747301 0.332475 
     length 2.40933 
     axis 0 0 0  XYZ
  end
  begin
     id 2 
     name lfemur
     direction 0.34202 -0.939693 0  
     length 7.31453  
     axis 0 0 20  XYZ
    dof rx ry rz
    limits (-160.0 20.0)
           (-70.0 70.0)
           (-60.0 70.0)
  end
  begin
     id 3 
     name ltibia
     direction 0.34202 -0.939693 0   
     length 7.82185   
     axis 0 0 20   XYZ
    dof rx
    limits (-10.0 170.0)
  end
  begin
     id 4 
     name lfoot
     direction 0.0795993 -0.218697 0.972541   
     length 2.19173   
     axis -90 7.62852e-016 20   XYZ
    dof rx rz
    limits (-45.0 90.0)
           (-70.0 20.0)
  end
  begin
     id 5 
     name ltoes
     direction 1.53537e-011 -4.21894e-011 1   
     length 1.10023   
     axis -90 7.62852e-016 20   XYZ
    dof rx
    limits (-90.0 20.0)
  end
  begin
     id 6 
     name rhipjoint
     direction -0.513884 -0.783789 0.348708   
     length 2.29716  
     axis 0 0 0  XYZ 
  end
  begin
     id 7 
     name rfemur
     direction -0.34202 -0.939693 0   
     length 7.59573   
     axis 0 0 -20   XYZ
    dof rx ry rz
    limits (-160.0 20.0)
           (-70.0 70.0)
           (-70.0 60.0)
  end
  begin
     id 8 
     name rtibia
     direction -0.34202 -0.939693 0   
     length 7.66402   
     axis 0 0 -20   XYZ
    dof rx
    limits (-10.0 170.0)
 end
 begin
     id 9 
     name rfoot
     direction -0.137793 -0.378584 0.915253   
     length 2.27056  
     axis -90 -7.62852e-016 -20   XYZ
    dof rx rz
    limits (-45.0 90.0)
           (-20.0 70.0)
  end
  begin
     id 10 
     name rtoes
     direction -1.53493e-011 -4.22159e-011 1   
     length 1.11766   
     axis -90 -7.62852e-016 -20   XYZ
    dof rx
    limits (-90.0 20.0)
  end
  begin
     id 11 
     name lowerback
     direction -0.00732775 0.998356 -0.05685   
     length 2.16513   
     axis 0 0 0   XYZ
    dof rx ry rz
    limits (-20.0 45.0)
           (-30.0 30.0)
           (-30.0 30.0)
  end
  begin
     id 12 
     name upperback
     direction 0.0218081 0.999627 -0.0164647   
     length 2.16755   
     axis 0 0 0   XYZ
    dof rx ry rz
    limits (-20.0 45.0)
           (-30.0 30.0)
           (-30.0 30.0)
  end
  begin
     id 13 
     name thorax
     direction 0.02365 0.999661 0.0108914   
     length 2.16932   
     axis 0 0 0   XYZ
    dof rx ry rz
    limits (-20.0 45.0)
           (-30.0 30.0)
           (-30.0 30.0)
  end
  begin
     id 14 
     name lowerneck
     direction -0.0523929 0.978385 0.200044   
     length 1.63877   
     axis 0 0 0   XYZ
    dof rx ry rz
    limits (-20.0 45.0)
           (-30.0 30.0)
           (-30.0 30.0)
  end
  begin
     id 15 
     name upperneck
     direction 0.0448674 0.981321 -0.187074   
     length 1.69014   
     axis 0 0 0   XYZ
    dof rx ry rz
    limits (-20.0 45.0)
           (-30.0 30.0)
           (-30.0 30.0)
  end
  begin
     id 16
     name head
     direction 0.0199089 0.996118 -0.0857429  
     length 1.70094  
     axis 0 0 0   XYZ
    dof rx ry rz
    limits (-20.0 45.0)
           (-30.0 30.0)
           (-30.0 30.0)
  end
  begin
     id 17 
     name lclavicle
     direction 0.940366 0.30191 -0.156722  
     length 3.37521  
     axis 0 0 0   XYZ
    dof ry rz
    limits (-20.0 10.0)
           (0.0 20.0)
  end
  begin
     id 18 
     name lhumerus
     direction 1 -4.4897e-011 -1.7911e-027   
     length 5.25287   
     axis 180 -30 -90   XYZ
    dof rx ry rz
    limits (-60.0 90.0)
           (-90.0 90.0)
           (-90.0 90.0)
  end
  begin
     id 19
     name lradius
     direction 1 -4.48951e-011 1.04424e-027   
     length 3.51014   
     axis 180 -30 -90   XYZ
    dof rx
    limits (-10.0 170.0)
  end
  begin
     id 20
     name lwrist
     direction 1 -4.48997e-011 -9.5942e-028   
     length 1.75507   
     axis 8.48502e-016 90 90   XYZ
    dof ry
    limits (-180.0 0.0)
 end
  begin
     id 21 
     name lhand
     direction 1 -4.48831e-011 -1.90777e-027   
     length 0.706179   
     axis 1.22306e-015 90 90   XYZ
    dof rx rz
    limits (-90.0 90.0)
           (-45.0 45.0)
  end
  begin
     id 22 
     name lfingers
     direction 1 -4.49108e-011 -3.85244e-027   
     length 0.569339   
     axis 2.44611e-015 90 90   XYZ
    dof rx
    limits (0.0 90.0)
  end
  begin
     id 23
     name lthumb
     direction 0.707107 -6.34953e-011 0.707107   
     length 0.817461   
     axis -90 45 -1.62303e-014   XYZ
    dof rx rz
    limits (-45.0 45.0)
           (-45.0 45.0)
  end
  begin
     id 24 
     name rclavicle
     direction -0.905329 0.382405 -0.184787   
     length 3.30787  
     axis 0 0 0   XYZ 
    dof ry rz
    limits (-10.0 20.0)
           (-20.0 0.0)
  end
  begin
     id 25 
     name rhumerus
     direction -1 -4.48953e-011 -9.15316e-029  
     length 5.28721   
     axis 180 30 90   XYZ
    dof rx ry rz
    limits (-90.0 60.0)
           (-90.0 90.0)
           (-90.0 90.0)
  end
  begin
     id 26 
     name rradius
     direction -1 -4.48987e-011 9.37824e-028   
     length 3.50544   
     axis 180 30 90   XYZ
    dof rx
    limits (-10.0 170.0)
  end
  begin
     id 27 
     name rwrist
     direction -1 -4.48967e-011 -9.58414e-028   
     length 1.75272   
     axis 8.48502e-016 -90 -90   XYZ
    dof ry
    limits (-180.0 0.0)
  end
  begin
     id 28
     name rhand
     direction -1 -4.48904e-011 -1.91266e-027   
     length 0.884996   
     axis 1.22306e-015 -90 -90   XYZ
    dof rx rz
    limits (-90.0 90.0)
           (-45.0 45.0)
  end
  begin
     id 29
     name rfingers
     direction -1 -4.4909e-011 -3.85015e-027   
     length 0.713507   
     axis 2.44611e-015 -90 -90   XYZ
    dof rx
    limits (0.0 90.0)
  end
  begin
     id 30
     name rthumb
     direction -0.707107 -6.34853e-011 0.707107   
     length 1.02446   
     axis -90 -45 1.62303e-014   XYZ
    dof rx rz
    limits (-45.0 45.0)
           (-45.0 45.0)
  end
:hierarchy
  begin
    root lhipjoint rhipjoint lowerback
    lhipjoint lfemur
    lfemur ltibia
    ltibia lfoot
    lfoot ltoes
    rhipjoint rfemur
    rfemur rtibia
    rtibia rfoot
    rfoot rtoes
    lowerback upperback
    upperback thorax
    thorax lowerneck lclavicle rclavicle
    lowerneck upperneck
    upperneck head
    lclavicle lhumerus
    lhumerus lradius
    lradius lwrist
    lwrist lhand lthumb
    lhand lfingers
    rclavicle rhumerus
    rhumerus rradius
    rradius rwrist
    rwrist rhand rthumb
    rhand rfingers
  end

#!OML:ASF F:\twosubjects\two\Thursday\Session 1\justin.ASF
:FULLY-SPECIFIED
:DEGREES
235
root 8.74078 14.0762 -12.8022 23.7976 18.1588 12.7272
lowerback 34.0493 1.83028 10.1019
upperback 1.55064 7.62753 7.69366
thorax -15.6167 2.88326 -0.201882
lowerneck -19.4233 -10.9343 -15.3096
upperneck 16.1763 -10.2617 -1.23293
head 9.02791 -5.88888 0.51911
rclavicle 0 6.36111e-015
rhumerus 56.1291 -13.6095 -89.7805
rradius 91.6076
rwrist -64.7819
rhand -22.8099 5.13837
rfingers 7.12502
rthumb 3.6267 -24.8105
lclavicle 0 6.36111e-015
lhumerus 23.9617 -50.9933 79.3871
lradius 76.1732
lwrist -9.85993
lhand -15.7159 66.5128
lfingers 7.12502
lthumb 10.4742 -96.2319
rfemur -65.9995 -29.8393 -11.1457
rtibia 67.764
rfoot -10.3495 -2.00881
rtoes -35.1666
lfemur -45.865 21.6178 -8.33944
ltibia 66.5771
lfoot -22.6768 -4.0805
ltoes -35.8135
236
root 8.7235 14.0477 -12.7844 23.2037 18.3855 12.7526
lowerback 34.6161 1.8706 9.99677
upperback 1.63702 7.71149 7.6852
thorax -15.763 2.91424 -0.213218
lowerneck -19.4765 -10.9608 -15.0387
upperneck 16.0683 -10.3301 -1.43094
head 8.976 -5.92196 0.404716
rclavicle -2.54444e-014 3.18055e-015
rhumerus 56.8474 -14.1205 -89.8215
rradius 91.0874
rwrist -64.8845
rhand -23.0525 5.05094
rfingers 7.12502
rthumb 3.39239 -24.9018
lclavicle -2.54444e-014 3.18055e-015
lhumerus 24.3802 -51.3262 79.2404
lradius 76.2333
lwrist -9.91139
lhand -13.8135 66.0494
lfingers 7.12502
lthumb 12.3089 -95.6671
rfemur -65.5149 -30.1256 -11.1993
rtibia 68.1736
rfoot -10.6238 -1.60417
rtoes -35.2784
lfemur -45.2872 21.6201 -7.94174
ltibia 67.0984
lfoot -23.0709 -3.99965
ltoes -35.9224
237
root 8.75742 13.9806 -12.8259 23.8481 18.5502 12.8059
lowerback 33.8991 1.9777 10.4437
upperback 1.60761 7.86945 7.47689
thorax -15.3813 2.9709 -0.701184
lowerneck -20.0429 -11.179 -14.7805
upperneck 16.22 -10.5543 -1.63135
head 9.1111 -6.03592 0.232517
rclavicle -4.13472e-014 -4.13472e-014
rhumerus 57.6178 -14.9504 -89.6798
rradius 90.4499
rwrist -64.9267
rhand -23.0992 5.24992
rfingers 7.12502
rthumb 3.34731 -24.7036
lclavicle -4.13472e-014 -4.13472e-014
lhumerus 25.4596 -51.9326 78.6616
lradius 76.2065
lwrist -9.7706
lhand -9.04734 66.4077
lfingers 7.12502
lthumb 16.9009 -95.6923
rfemur -66.5976 -31.169 -10.7921
rtibia 68.4395
rfoot -10.4934 -1.05031
rtoes -34.9626
lfemur -46.7002 21.3793 -8.29816
ltibia 67.7486
lfoot -22.9633 -3.44671
ltoes -36.3082
238
root 8.78532 13.9317 -12.8619 24.599 18.22 12.7336
lowerback 33.0804 2.19729 10.0896
upperback 1.37173 7.94134 7.54612
thorax -15.376 3.03246 -0.451583
lowerneck -19.3661 -10.9422 -14.9277
upperneck 16.0641 -10.2607 -1.89343
head 8.92249 -5.93106 0.24885
rclavicle -4.45278e-014 -2.54444e-014
rhumerus 53.1482 -14.5094 -91.5864
rradius 94.9366
rwrist -63.5924
rhand -21.9381 4.35603
rfingers 7.12502
rthumb 4.46854 -25.5768
lclavicle -4.45278e-014 -2.54444e-014
lhumerus 24.9296 -51.69 79.3067
lradius 76.1042
lwrist -9.79417
lhand -11.652 65.3964
lfingers 7.12502
lthumb 14.3923 -94.8774
rfemur -67.9657 -31.4758 -10.423
rtibia 68.6135
rfoot -10.4071 -0.839779
rtoes -34.2142
lfemur -48.0586 21.6661 -8.78559
ltibia 68.2734
lfoot -22.9719 -3.20435
ltoes -37.0602
239
root 8.74669 13.9721 -12.8056 22.9336 18.5882 12.6234
lowerback 34.647 2.07754 9.63063
upperback 1.70165 7.8623 7.84461
thorax -15.7781 3.01216 0.0797135
lowerneck -19.5718 -10.8726 -14.947
upperneck 16.0861 -10.0905 -2.0306
head 8.94966 -5.86789 0.220481
rclavicle 6.99722e-014 1.27222e-014
rhumerus 53.7181 -14.3612 -92.1972
rradius 94.9532
rwrist -63.2682
rhand -22.067 3.744
rfingers 7.12502
rthumb 4.34411 -26.1914
lclavicle 6.99722e-014 1.27222e-014
lhumerus 25.1896 -51.5324 79.2367
lradius 76.0507
lwrist -9.82377
lhand -15.0379 66.682
lfingers 7.12502
lthumb 11.1282 -96.3669
rfemur -65.6743 -30.6789 -11.1283
rtibia 68.8662
rfoot -11.1677 -1.05396
rtoes -34.0156
lfemur -45.6946 21.6439 -7.7769
ltibia 68.1268
lfoot -23.6207 -3.39284
ltoes -37.8384
240
root 8.7503 13.949 -12.8142 22.8594 18.8028 12.2524
lowerback 34.5968 2.09743 9.78268
upperback 1.65696 7.96337 7.93188
thorax -15.8011 3.04657 0.0557196
lowerneck -19.5213 -10.8008 -14.8246
upperneck 16.0092 -9.9984 -2.23162
head 8.89189 -5.83603 0.15498
rclavicle 4.13472e-014 3.18055e-014
rhumerus 54.6731 -14.5042 -92.8989
rradius 96.272
rwrist -62.8204
rhand -22.8302 1.63435
rfingers 7.12502
rthumb 3.60705 -28.3149
lclavicle 4.13472e-014 3.18055e-014
lhumerus 25.4728 -51.6586 79.1608
lradius 76.0854
lwrist -9.82093
lhand -15.0086 66.8541
lfingers 7.12502
lthumb 11.1564 -96.5375
rfemur -65.8302 -30.7278 -10.7225
rtibia 69.0398
rfoot -11.1414 -1.10992
rtoes -34.331
lfemur -45.915 21.7005 -7.35565
ltibia 68.3274
lfoot -23.6457 -3.06928
ltoes -38.356
241
root 8.75909 13.9296 -12.8253 22.7875 18.86 12.1966
lowerback 34.7117 2.15533 9.753
upperback 1.58016 8.03941 7.85288
thorax -15.9293 3.06746 -0.0550007
lowerneck -19.6339 -10.7762 -14.7716
upperneck 16.326 -9.92504 -2.32902
head 9.01115 -5.81946 0.110795
rclavicle 3.81667e-014 5.725e-014
rhumerus 53.4978 -15.0464 -92.072
rradius 94.9331
rwrist -63.2074
rhand -22.1611 3.88859
rfingers 7.12502
rthumb 4.25324 -26.0487
lclavicle 3.81667e-014 5.725e-014
lhumerus 25.6784 -51.8982 79.0476
lradius 76.1742
lwrist -9.89574
lhand -14.8773 67.0796
lfingers 7.12502
lthumb 11.2831 -96.7561
rfemur -65.8716 -30.7967 -10.7352
rtibia 69.1868
rfoot -11.1272 -1.05735
rtoes -34.5428
lfemur -45.9459 21.6339 -7.24657
ltibia 68.4613
lfoot -23.7415 -2.9787
ltoes -38.3945
242
root 8.76524 13.9197 -12.8334 22.5527 19.0669 11.9839
lowerback 34.9123 1.95492 9.58754
upperback 1.33266 7.8313 8.03689
thorax -16.3833 2.96889 0.303278
lowerneck -18.6414 -10.3969 -15.2192
upperneck 16.277 -9.4886 -2.19705
head 8.83597 -5.62557 0.334713
rclavicle 5.40694e-014 3.18055e-014
rhumerus 53.2685 -14.6108 -92.0827
rradius 94.7773
rwrist -63.1483
rhand -22.3627 3.58674
rfingers 7.12502
rthumb 4.0585 -26.3543
lclavicle 5.40694e-014 3.18055e-014
lhumerus 24.3737 -51.4099 80.0655
lradius 76.2309
lwrist -10.215
lhand -12.9683 67.0563
lfingers 7.12502
lthumb 13.1237 -96.6233
rfemur -65.6284 -30.7256 -10.6813
rtibia 69.2829
rfoot -11.0715 -1.18009
rtoes -34.662
lfemur -45.9173 21.5275 -6.90945
ltibia 68.7004
lfoot -24.0843 -2.87989
ltoes -38.6342
243
root 8.77056 13.91 -12.8425 22.4599 19.2249 11.8931
lowerback 34.9383 2.00251 9.88354
upperback 1.38982 7.93314 7.70524
thorax -16.2113 2.98476 -0.250818
lowerneck -19.4358 -10.5163 -14.4607
upperneck 16.6614 -9.66005 -2.43255
head 9.05883 -5.69905 0.074994
rclavicle -1.59028e-014 -1.46306e-013
rhumerus 53.6711 -15.4894 -92.405
rradius 94.8427
rwrist -63.0994
rhand -22.801 3.20206
rfingers 7.12502
rthumb 3.63524 -26.7467
lclavicle -1.59028e-014 -1.46306e-013
lhumerus 25.4455 -52.143 79.0772
lradius 76.2329
lwrist -10.1988
lhand -15.2521 67.2199
lfingers 7.12502
lthumb 10.9216 -96.9159
rfemur -65.4772 -30.6282 -10.7614
rtibia 69.3742
rfoot -10.9972 -1.37698
rtoes -34.6206
lfemur -46.0353 21.4665 -6.80007
ltibia 68.8792
lfoot -24.4445 -2.71534
ltoes -38.8565
244
root 8.77679 13.8877 -12.8475 22.6432 19.075 12.1593
lowerback 34.7833 2.19532 9.47589
upperback 1.43837 7.94678 7.49288
thorax -16.1086 3.01978 -0.275909
lowerneck -19.976 -10.5472 -14.1
upperneck 16.9442 -9.64867 -2.6763
head 9.21703 -5.70776 -0.0911821
rclavicle 3.81667e-014 2.8625e-014
rhumerus 53.8598 -15.9263 -92.6
rradius 94.8696
rwrist -63.2708
rhand -23.2081 2.88698
rfingers 7.12502
rthumb 3.24215 -27.0681
lclavicle 3.81667e-014 2.8625e-014
lhumerus 26.2812 -52.4409 78.5455
lradius 76.0912
lwrist -10.1156
lhand -7.57973 67.1592
lfingers 7.12502
lthumb 18.3132 -96.3171
rfemur -65.7299 -30.7031 -11.0735
rtibia 69.4984
rfoot -11.0776 -1.35351
rtoes -34.0951
lfemur -46.2503 21.566 -7.18534
ltibia 69.0929
lfoot -24.5432 -2.69169
ltoes -38.3361
245
root 8.78584 13.8612 -12.8507 22.6641 19.1468 12.0427
lowerback 34.6177 1.93178 8.69133
upperback 1.1122 7.45616 8.05891
thorax -16.6748 2.86763 0.950808
lowerneck -18.0853 -9.86152 -15.3102
upperneck 16.3458 -8.7637 -2.51312
head 8.71718 -5.3253 0.374215
rclavicle 9.22361e-014 1.17681e-013
rhumerus 52.6824 -14.321 -92.3854
rradius 94.8721
rwrist -63.603
rhand -23.4939 2.70239
rfingers 7.12502
rthumb 2.96616 -27.2567
lclavicle 9.22361e-014 1.17681e-013
lhumerus 23.9422 -50.9086 80.6869
lradius 75.9964
lwrist -10.3639
lhand -13.279 67.3112
lfingers 7.12502
lthumb 12.8242 -96.8973
rfemur -65.9572 -30.9032 -10.8925
rtibia 69.6497
rfoot -11.1454 -1.24413
rtoes -33.9079
lfemur -46.4579 21.6858 -7.04489
ltibia 69.4021
lfoot -24.5083 -3.27701
ltoes -36.5913
246
root 8.79849 13.8415 -12.8645 22.6411 19.383 11.729
lowerback 34.4922 2.08324 9.4875
upperback 1.17139 7.84191 7.64431
thorax -16.3414 2.96755 -0.0684524
lowerneck -18.9427 -10.2423 -14.433
upperneck 16.6637 -9.31605 -2.72951
head 8.94409 -5.56685 0.0473562
rclavicle 3.18055e-015 2.54444e-014
rhumerus 53.1461 -15.7139 -92.8134
rradius 95.0234
rwrist -63.514
rhand -23.5555 2.85808
rfingers 7.12502
rthumb 2.90666 -27.1019
lclavicle 3.18055e-015 2.54444e-014
lhumerus 25.655 -52.2041 79.3407
lradius 76.0106
lwrist -10.1775
lhand -14.5268 67.3283
lfingers 7.12502
lthumb 11.6211 -96.9861
rfemur -66.111 -31.0919 -10.5148
rtibia 69.765
rfoot -11.0979 -1.16943
rtoes -34.1821
lfemur -46.7927 21.6669 -6.68326
ltibia 69.7432
lfoot -24.7926 -3.21918
ltoes -36.6945
247
root 8.80638 13.8415 -12.8793 22.6139 19.4307 11.5609
lowerback 34.6183 2.06778 9.36078
upperback 1.01639 7.82824 7.69975
thorax -16.6152 2.95483 0.0523139
lowerneck -18.5863 -10.0119 -14.2585
upperneck 16.5144 -9.07112 -2.97141
head 8.79852 -5.46061 0.000184471
rclavicle -6.04305e-014 -1.27222e-013
rhumerus 52.8862 -15.6172 -92.9835
rradius 95.1224
rwrist -63.2603
rhand -23.4306 3.10009
rfingers 7.12502
rthumb 3.02723 -26.8582
lclavicle -6.04305e-014 -1.27222e-013
lhumerus 25.4252 -52.1173 79.7053
lradius 75.9171
lwrist -10.2334
lhand -14.6376 67.5304
lfingers 7.12502
lthumb 11.5143 -97.1942
rfemur -66.1587 -31.0187 -10.4007
rtibia 69.8104
rfoot -11.0799 -1.18319
rtoes -33.9297
lfemur -46.9863 21.6724 -6.56151
ltibia 69.9686
lfoot -25.0672 -2.84519
ltoes -37.6186
248
root 8.81197 13.8325 -12.8893 22.3962 19.6082 11.307
lowerback 34.8897 1.86778 9.17187
upperback 0.86643 7.60295 7.88108
thorax -16.9852 2.85977 0.431523
lowerneck -18.3377 -9.70386 -14.4604
upperneck 16.6593 -8.63159 -2.95646
head 8.79756 -5.27044 0.106431
rclavicle -2.22639e-014 -6.99722e-014
rhumerus 52.48 -15.1515 -93.1995
rradius 95.3204
rwrist -63.0861
rhand -23.3966 2.97273
rfingers 7.12502
rthumb 3.06013 -26.9851
lclavicle -2.22639e-014 -6.99722e-014
lhumerus 24.6104 -51.5859 80.1683
lradius 76.1636
lwrist -10.2853
lhand -14.5563 67.6774
lfingers 7.12502
lthumb 11.5926 -97.3367
rfemur -66.0123 -30.9885 -10.2559
rtibia 69.8953
rfoot -11.0155 -1.1703
rtoes -33.7353
lfemur -47.0422 21.6543 -6.21569
ltibia 70.1948
lfoot -25.1002 -3.45034
ltoes -37.0025
